<?xml version="1.0" encoding="UTF-8" standalone="no"?>
<svg xmlns="http://www.w3.org/2000/svg" width="300" height="100" viewBox="0 0 300 100">
  <g fill="#C8102E">
    <path d="M30,20 L30,80 L10,80 L10,20 L30,20 Z M50,20 L50,80 L35,80 L35,20 L50,20 Z M90,20 L90,80 L55,80 L55,20 L90,20 Z M130,20 L130,80 L95,80 L95,20 L130,20 Z M170,20 L170,80 L135,80 L135,20 L170,20 Z M210,20 L210,80 L175,80 L175,20 L210,20 Z M250,20 L250,80 L215,80 L215,20 L250,20 Z M290,20 L290,80 L255,80 L255,20 L290,20 Z"/>
    <path d="M25,25 L15,25 L15,75 L25,75 L25,25 Z M45,25 L40,25 L40,75 L45,75 L45,25 Z M85,25 L60,25 L60,75 L85,75 L85,25 Z M125,25 L100,25 L100,75 L125,75 L125,25 Z M165,25 L140,25 L140,75 L165,75 L165,25 Z M205,25 L180,25 L180,75 L205,75 L205,25 Z M245,25 L220,25 L220,75 L245,75 L245,25 Z M285,25 L260,25 L260,75 L285,75 L285,25 Z"/>
  </g>
</svg>
