<?xml version="1.0" encoding="UTF-8" standalone="no"?>
<svg xmlns="http://www.w3.org/2000/svg" width="300" height="100" viewBox="0 0 300 100">
  <g fill="#005DAA">
    <path d="M20,20 L20,80 L10,80 L10,20 L20,20 Z M40,20 L40,80 L25,80 L25,20 L40,20 Z M60,20 L60,80 L45,80 L45,20 L60,20 Z M80,20 L80,80 L65,80 L65,20 L80,20 Z M100,20 L100,80 L85,80 L85,20 L100,20 Z M120,20 L120,80 L105,80 L105,20 L120,20 Z M140,20 L140,80 L125,80 L125,20 L140,20 Z M160,20 L160,80 L145,80 L145,20 L160,20 Z M180,20 L180,80 L165,80 L165,20 L180,20 Z M200,20 L200,80 L185,80 L185,20 L200,20 Z M220,20 L220,80 L205,80 L205,20 L220,20 Z M240,20 L240,80 L225,80 L225,20 L240,20 Z M260,20 L260,80 L245,80 L245,20 L260,20 Z M280,20 L280,80 L265,80 L265,20 L280,20 Z"/>
    <path d="M15,25 L15,75 L15,75 L15,25 Z M35,25 L30,25 L30,75 L35,75 L35,25 Z M55,25 L50,25 L50,75 L55,75 L55,25 Z M75,25 L70,25 L70,75 L75,75 L75,25 Z M95,25 L90,25 L90,75 L95,75 L95,25 Z M115,25 L110,25 L110,75 L115,75 L115,25 Z M135,25 L130,25 L130,75 L135,75 L135,25 Z M155,25 L150,25 L150,75 L155,75 L155,25 Z M175,25 L170,25 L170,75 L175,75 L175,25 Z M195,25 L190,25 L190,75 L195,75 L195,25 Z M215,25 L210,25 L210,75 L215,75 L215,25 Z M235,25 L230,25 L230,75 L235,75 L235,25 Z M255,25 L250,25 L250,75 L255,75 L255,25 Z M275,25 L270,25 L270,75 L275,75 L275,25 Z"/>
  </g>
</svg>
