<?xml version="1.0" encoding="UTF-8" standalone="no"?>
<svg xmlns="http://www.w3.org/2000/svg" width="300" height="100" viewBox="0 0 300 100">
  <g fill="#009999">
    <path d="M30.87,32.32 C30.87,32.32 30.87,67.68 30.87,67.68 C30.87,67.68 0,67.68 0,67.68 C0,67.68 0,32.32 0,32.32 C0,32.32 30.87,32.32 30.87,32.32 z M27.43,35.76 C27.43,35.76 3.44,35.76 3.44,35.76 C3.44,35.76 3.44,64.24 3.44,64.24 C3.44,64.24 27.43,64.24 27.43,64.24 C27.43,64.24 27.43,35.76 27.43,35.76 z"/>
    <path d="M45.64,32.32 C45.64,32.32 45.64,67.68 45.64,67.68 C45.64,67.68 34.31,67.68 34.31,67.68 C34.31,67.68 34.31,32.32 34.31,32.32 C34.31,32.32 45.64,32.32 45.64,32.32 z M42.2,35.76 C42.2,35.76 37.75,35.76 37.75,35.76 C37.75,35.76 37.75,64.24 37.75,64.24 C37.75,64.24 42.2,64.24 42.2,64.24 C42.2,64.24 42.2,35.76 42.2,35.76 z"/>
    <path d="M64.85,32.32 C64.85,32.32 64.85,67.68 64.85,67.68 C64.85,67.68 49.08,67.68 49.08,67.68 C49.08,67.68 49.08,32.32 49.08,32.32 C49.08,32.32 64.85,32.32 64.85,32.32 z M61.41,35.76 C61.41,35.76 52.52,35.76 52.52,35.76 C52.52,35.76 52.52,64.24 52.52,64.24 C52.52,64.24 61.41,64.24 61.41,64.24 C61.41,64.24 61.41,35.76 61.41,35.76 z"/>
  </g>
</svg>
